<?xml version="1.0" standalone="no"?>
<!DOCTYPE svg PUBLIC "-//W3C//DTD SVG 20010904//EN"
 "http://www.w3.org/TR/2001/REC-SVG-20010904/DTD/svg10.dtd">
<svg version="1.0" xmlns="http://www.w3.org/2000/svg"
 width="960.000000pt" height="960.000000pt" viewBox="0 0 960.000000 960.000000"
 preserveAspectRatio="xMidYMid meet">
<metadata>
Created by potrace 1.14, written by Peter Selinger 2001-2017
</metadata>
<g transform="translate(0.000000,960.000000) scale(0.100000,-0.100000)"
fill="#000000" stroke="none">
<path d="M3561 9008 c-17 -44 -62 -153 -83 -198 -11 -25 -21 -49 -23 -55 -1
-5 -7 -21 -13 -35 -6 -14 -25 -59 -42 -100 -17 -41 -40 -94 -51 -117 -10 -24
-19 -50 -19 -58 0 -8 -5 -15 -10 -15 -6 0 -9 -3 -8 -7 1 -5 -6 -25 -15 -47 -9
-21 -17 -42 -17 -45 0 -4 -12 -32 -27 -62 -15 -30 -27 -58 -29 -64 -3 -18 -96
-239 -116 -277 -11 -21 -16 -38 -12 -38 3 0 2 -6 -4 -12 -5 -7 -31 -65 -57
-128 -25 -63 -53 -128 -60 -145 -8 -16 -15 -37 -17 -45 -2 -8 -6 -17 -9 -20
-3 -3 -16 -32 -29 -65 -13 -33 -29 -63 -34 -67 -6 -4 -8 -8 -4 -8 4 0 -8 -37
-28 -82 -19 -46 -36 -87 -37 -91 -1 -5 585 -9 1303 -9 l1305 0 50 25 c42 22
95 45 115 52 3 1 37 16 75 34 214 100 461 179 578 184 9 1 17 4 17 7 0 6 54 9
195 9 136 1 203 -6 340 -35 39 -9 79 -17 90 -19 11 -2 21 -4 23 -5 1 -2 5 -3
10 -4 4 -1 13 -5 20 -9 6 -5 12 -6 12 -3 0 3 12 1 28 -5 15 -6 34 -12 42 -14
27 -6 175 -68 195 -82 11 -7 27 -13 37 -13 10 0 18 -5 18 -10 0 -6 10 -14 23
-19 75 -29 246 -178 307 -266 18 -28 36 -52 40 -55 12 -10 70 -141 70 -158 0
-10 5 -23 12 -30 7 -7 9 -12 6 -12 -3 0 1 -26 8 -57 15 -64 18 -129 6 -136
-11 -7 -298 73 -367 102 -11 5 -49 18 -85 29 -36 12 -157 53 -270 92 -274 96
-302 105 -395 130 -99 27 -268 34 -331 15 -24 -7 -44 -10 -44 -7 0 4 -4 2 -8
-3 -4 -6 -24 -19 -45 -30 -49 -26 -99 -75 -123 -123 -10 -20 -21 -39 -24 -42
-13 -13 -23 -127 -13 -143 4 -7 8 -18 9 -24 4 -23 29 -73 36 -73 5 0 8 -6 8
-14 0 -12 15 -27 80 -79 31 -25 170 -83 220 -93 14 -2 32 -7 40 -11 8 -3 20
-7 25 -8 6 -2 37 -10 70 -20 106 -29 130 -36 151 -40 12 -3 38 -12 58 -20 20
-8 37 -15 38 -14 5 1 62 -12 88 -21 14 -5 59 -18 100 -30 41 -12 82 -24 90
-27 8 -2 16 -4 18 -4 1 1 18 -5 37 -13 19 -8 35 -13 35 -11 0 3 17 -1 38 -9
20 -7 63 -22 95 -32 31 -10 57 -21 57 -24 0 -7 -52 -34 -145 -75 -33 -15 -73
-32 -90 -40 -30 -13 -188 -63 -222 -70 -10 -2 -29 -6 -43 -9 -154 -36 -412
-40 -660 -11 -14 2 -25 4 -25 5 0 1 -12 3 -26 5 -14 2 -45 9 -70 15 -24 7 -46
12 -49 12 -16 0 -146 53 -152 62 -4 6 -8 7 -8 3 0 -10 -66 28 -195 112 -55 36
-111 71 -125 79 -13 7 -44 30 -69 50 l-45 37 -681 2 c-374 2 -1048 3 -1499 3
-813 0 -846 -1 -846 -31 0 -8 -87 -218 -131 -316 -11 -23 -19 -45 -19 -48 0
-3 -8 -25 -19 -48 -10 -23 -33 -76 -50 -117 -18 -41 -39 -91 -48 -110 -9 -19
-17 -37 -18 -40 -4 -12 -19 -49 -41 -97 -12 -29 -21 -53 -19 -53 3 0 -4 -17
-14 -37 -11 -21 -31 -67 -46 -103 -15 -36 -31 -74 -36 -85 -4 -11 -17 -41 -28
-66 -11 -25 -29 -68 -40 -95 -10 -27 -30 -71 -42 -99 -13 -27 -24 -59 -26 -69
-2 -11 -9 -26 -15 -34 -7 -8 -13 -19 -14 -26 -1 -7 -11 -32 -22 -56 -23 -51
-116 -272 -118 -280 0 -3 -8 -21 -16 -40 -38 -84 -51 -116 -53 -125 -4 -15
-54 -126 -71 -157 -8 -16 -13 -28 -10 -28 3 0 -6 -24 -19 -52 -13 -29 -53
-125 -90 -213 -37 -88 -73 -173 -80 -190 -7 -16 -15 -37 -17 -45 -2 -8 -5 -17
-8 -20 -8 -7 -81 -182 -87 -208 -3 -12 -9 -22 -14 -22 -5 0 -8 -3 -7 -7 3 -8
-41 -115 -112 -278 -8 -16 -14 -32 -15 -35 -1 -3 -9 -23 -19 -45 -10 -22 -40
-96 -68 -165 -28 -69 -54 -127 -57 -130 -3 -3 -7 -11 -9 -19 -2 -8 -12 -32
-23 -54 -10 -23 -19 -45 -19 -50 0 -4 -11 -32 -24 -60 -13 -29 -69 -162 -125
-297 -57 -135 -109 -259 -116 -275 -16 -36 -38 -88 -40 -95 0 -3 -6 -15 -13
-26 -6 -12 -8 -24 -5 -28 3 -3 2 -6 -4 -6 -6 0 -14 -12 -18 -27 -3 -15 -15
-45 -25 -68 -10 -22 -42 -96 -70 -165 -54 -129 -84 -200 -100 -235 -5 -11 -26
-60 -46 -110 -20 -49 -39 -94 -43 -100 -4 -5 -13 -29 -21 -52 -7 -24 -16 -43
-20 -43 -4 0 -7 -6 -7 -14 0 -8 -7 -29 -15 -47 -18 -38 -122 -285 -130 -309
-5 -13 153 -15 1411 -13 779 1 1419 2 1423 2 7 1 40 57 37 63 -1 5 65 175 106
273 7 17 50 122 95 235 45 113 87 216 93 230 6 14 11 27 11 30 2 10 28 75 48
120 12 25 26 61 33 80 7 19 19 49 26 65 6 17 13 35 15 40 1 6 32 82 68 170 35
88 69 171 75 185 5 14 37 95 71 180 34 85 68 169 76 187 8 17 14 33 14 36 0 2
8 22 17 43 9 22 17 41 17 44 1 5 19 49 47 115 5 11 18 45 30 75 20 53 31 79
59 145 7 17 15 37 16 45 2 8 8 23 13 35 9 17 30 67 36 85 1 3 6 16 12 30 44
105 60 149 55 154 -3 3 0 6 6 6 7 0 12 8 12 18 0 10 3 22 7 26 4 3 8 12 9 19
2 11 52 133 74 182 5 11 56 138 114 283 57 145 108 262 112 260 5 -2 8 -6 7
-10 -1 -3 4 -12 12 -18 8 -7 15 -16 15 -21 0 -5 52 -116 116 -247 64 -130 157
-320 206 -422 226 -463 302 -618 389 -795 51 -104 92 -193 91 -197 -1 -5 2 -8
8 -8 5 0 10 -4 10 -10 0 -9 64 -141 314 -653 59 -120 138 -282 175 -360 38
-78 114 -234 170 -346 55 -113 101 -211 101 -218 0 -7 3 -13 8 -13 4 0 18 -27
32 -60 14 -33 29 -60 33 -60 5 0 5 -4 2 -10 -3 -5 0 -10 7 -11 17 -1 2852 -1
2901 0 l38 1 -34 63 c-19 34 -47 85 -62 112 -15 28 -48 88 -73 135 -25 47 -48
90 -52 95 -4 6 -26 46 -50 90 -24 44 -54 100 -68 125 -13 25 -40 74 -60 110
-19 36 -39 71 -45 78 -5 6 -6 12 -1 12 5 0 4 4 -2 8 -6 4 -32 48 -59 97 -26
50 -63 118 -81 153 -46 84 -58 106 -64 112 -3 3 -17 30 -32 60 -15 30 -50 96
-78 145 -28 50 -59 108 -70 130 -11 22 -24 47 -29 55 -47 77 -69 119 -65 123
2 2 -2 10 -11 17 -8 7 -15 16 -15 20 0 9 -139 262 -151 275 -5 5 -9 17 -9 27
0 10 -4 18 -9 18 -5 0 -13 10 -17 23 -4 12 -9 24 -13 27 -3 3 -14 21 -23 40
-20 40 -76 144 -166 307 -34 61 -62 116 -62 122 0 6 -4 11 -9 11 -5 0 -11 8
-14 18 -3 9 -33 67 -67 127 -33 61 -68 126 -78 145 -9 19 -20 37 -24 38 -5 2
-8 7 -8 12 0 4 -34 69 -75 145 -41 75 -75 140 -75 145 0 5 -6 15 -12 22 -7 7
-22 31 -34 53 -11 22 -40 76 -64 120 -24 44 -48 89 -54 100 -6 11 -16 27 -23
35 -6 8 -12 17 -12 20 0 11 -15 45 -21 50 -8 6 -62 110 -58 111 2 0 48 2 103
4 55 2 120 7 145 10 25 3 52 6 60 6 30 1 201 26 230 34 8 2 29 7 45 10 49 8
68 12 115 25 25 7 52 14 60 15 8 2 15 4 15 5 0 1 9 3 20 5 39 8 250 80 253 87
2 5 10 8 17 8 41 0 326 137 489 235 114 69 106 64 246 162 14 10 30 22 36 28
6 5 28 24 48 40 115 92 337 314 391 389 11 16 25 33 30 40 22 23 145 213 173
266 15 30 36 66 44 80 9 14 21 42 28 63 6 20 15 37 20 37 4 0 10 10 13 23 3
12 19 58 36 101 26 68 54 165 66 228 2 10 7 23 10 28 3 5 8 27 10 47 2 21 6
49 9 62 27 116 28 564 2 642 -3 8 -7 32 -10 54 -8 58 -16 96 -26 130 -5 17
-11 41 -14 55 -2 14 -11 44 -20 68 -8 23 -15 43 -15 45 3 25 -135 330 -178
395 -11 15 -25 39 -33 55 -7 15 -17 27 -22 27 -4 0 -8 4 -8 10 0 11 -43 76
-76 112 -13 15 -24 30 -24 34 0 21 -295 328 -369 384 -18 14 -56 43 -84 65
-57 45 -194 136 -270 179 -46 26 -247 129 -257 132 -3 0 -21 8 -40 16 -35 15
-70 30 -80 33 -14 5 -47 18 -65 25 -24 10 -173 60 -195 65 -8 2 -42 11 -75 20
-69 19 -150 39 -205 49 -14 2 -32 7 -40 10 -8 2 -33 7 -55 10 -22 3 -49 7 -60
10 -11 2 -51 7 -90 10 -38 4 -88 9 -110 11 -47 6 -171 13 -310 20 -55 3 -156
8 -225 11 -69 3 -783 8 -1587 11 l-1463 5 -9 -24z"/>
</g>
</svg>
