<svg width="15.875mm" height="14.018mm" version="1.1" viewBox="0 0 15.875 14.018" xmlns="http://www.w3.org/2000/svg">
 <g transform="translate(-62.699 -120.21)">
  <path d="m62.699 134.22 3.9503-9.3773 4.9647 4e-3 0.1215 0.092c0.06688 0.0504 0.22732 0.1432 0.34427 0.22416 0.33276 0.2306 0.68635 0.333 1.2152 0.35192 0.36567 0.014 0.62876-0.02 0.94626-0.1186 0.227-0.0704 0.602-0.24006 0.57843-0.26152-0.018-0.016-1.2416-0.37886-1.5003-0.4445-0.33438-0.085-0.5128-0.195-0.60001-0.3702-0.06868-0.138-0.06868-0.25874-1.2e-5 -0.39672 0.06158-0.1236 0.13954-0.1946 0.29207-0.26556 0.09606-0.0448 0.13792-0.0516 0.30377-0.0504 0.24063 2e-3 0.34215 0.0294 1.043 0.27942 0.49288 0.176 1.0665 0.35634 1.133 0.35634 0.018 0 0.02304-0.0292 0.0162-0.1064-0.06334-0.74158-0.73355-1.2704-1.8077-1.4263-0.27241-0.0398-0.52835-0.0292-0.83261 0.0324-0.25724 0.0524-0.47926 0.1316-0.88576 0.31594l-0.33108 0.15h-4.3116l1.2591-3.0067 3.1984 4e-3s2.3878-4e-3 3.1131 0.1222c1.4185 0.2494 2.5015 0.9275 3.1498 1.972 0.52617 0.8478 0.65726 1.8985 0.35603 2.8537-0.11776 0.37344-0.36361 0.82078-0.63549 1.1562-0.14968 0.1846-0.51366 0.53478-0.71452 0.68724-0.80043 0.60752-1.8056 0.9807-2.7738 1.0298-0.21661 0.012-0.25743 8e-3 -0.25743 8e-3l3.3674 6.1806-4.8681 2e-5 -2.809-5.755-2.3075 5.7555z" fill="#64ffda" fill-rule="evenodd" stroke-width=".020266"/>
 </g>
</svg>
